<mxfile host="app.diagrams.net" agent="Mozilla/5.0 (X11; Linux x86_64; rv:130.0) Gecko/20100101 Firefox/130.0" version="24.7.10">
  <diagram name="Page-1" id="kQ7mq9oAiqgupMSse9NC">
    <mxGraphModel dx="1434" dy="1860" grid="1" gridSize="10" guides="1" tooltips="1" connect="1" arrows="1" fold="1" page="1" pageScale="1" pageWidth="850" pageHeight="1100" math="0" shadow="0">
      <root>
        <mxCell id="0" />
        <mxCell id="1" parent="0" />
        <mxCell id="sAUAd_UJqoq-bYFgKddF-17" style="edgeStyle=orthogonalEdgeStyle;rounded=0;orthogonalLoop=1;jettySize=auto;html=1;exitX=0;exitY=0.5;exitDx=0;exitDy=0;entryX=0;entryY=0.5;entryDx=0;entryDy=0;" edge="1" parent="1" source="sAUAd_UJqoq-bYFgKddF-1" target="sAUAd_UJqoq-bYFgKddF-10">
          <mxGeometry relative="1" as="geometry" />
        </mxCell>
        <mxCell id="sAUAd_UJqoq-bYFgKddF-20" style="edgeStyle=orthogonalEdgeStyle;rounded=0;orthogonalLoop=1;jettySize=auto;html=1;exitX=1;exitY=0.5;exitDx=0;exitDy=0;entryX=1;entryY=0.5;entryDx=0;entryDy=0;" edge="1" parent="1" source="sAUAd_UJqoq-bYFgKddF-1" target="sAUAd_UJqoq-bYFgKddF-15">
          <mxGeometry relative="1" as="geometry" />
        </mxCell>
        <mxCell id="sAUAd_UJqoq-bYFgKddF-1" value="Importance of search &lt;br&gt;in E-commerce" style="ellipse;whiteSpace=wrap;html=1;aspect=fixed;" vertex="1" parent="1">
          <mxGeometry x="325" y="30" width="150" height="150" as="geometry" />
        </mxCell>
        <mxCell id="sAUAd_UJqoq-bYFgKddF-2" value="&lt;div&gt;Keyword search&lt;/div&gt;" style="ellipse;whiteSpace=wrap;html=1;aspect=fixed;" vertex="1" parent="1">
          <mxGeometry x="105" y="180" width="150" height="150" as="geometry" />
        </mxCell>
        <mxCell id="sAUAd_UJqoq-bYFgKddF-4" value="Semantic search" style="ellipse;whiteSpace=wrap;html=1;aspect=fixed;" vertex="1" parent="1">
          <mxGeometry x="575" y="180" width="150" height="150" as="geometry" />
        </mxCell>
        <mxCell id="sAUAd_UJqoq-bYFgKddF-5" value="Hybrid search" style="ellipse;whiteSpace=wrap;html=1;aspect=fixed;" vertex="1" parent="1">
          <mxGeometry x="325" y="380" width="150" height="150" as="geometry" />
        </mxCell>
        <mxCell id="sAUAd_UJqoq-bYFgKddF-6" value="" style="endArrow=none;html=1;rounded=0;strokeWidth=7;" edge="1" parent="1">
          <mxGeometry width="50" height="50" relative="1" as="geometry">
            <mxPoint x="870" y="870" as="sourcePoint" />
            <mxPoint x="870" y="-200" as="targetPoint" />
          </mxGeometry>
        </mxCell>
        <mxCell id="sAUAd_UJqoq-bYFgKddF-7" value="&lt;font color=&quot;#000000&quot; data-darkreader-inline-color=&quot;&quot; style=&quot;font-size: 40px; --darkreader-inline-color: #e8e6e3;&quot;&gt;Core Ideas Map&lt;/font&gt;" style="text;html=1;align=center;verticalAlign=middle;resizable=0;points=[];autosize=1;strokeColor=none;fillColor=none;" vertex="1" parent="1">
          <mxGeometry x="280" y="-190" width="310" height="60" as="geometry" />
        </mxCell>
        <mxCell id="sAUAd_UJqoq-bYFgKddF-8" value="&lt;font style=&quot;font-size: 40px;&quot;&gt;Authors Map&lt;/font&gt;" style="text;html=1;align=center;verticalAlign=middle;resizable=0;points=[];autosize=1;strokeColor=none;fillColor=none;" vertex="1" parent="1">
          <mxGeometry x="1160" y="-200" width="250" height="60" as="geometry" />
        </mxCell>
        <mxCell id="sAUAd_UJqoq-bYFgKddF-10" value="Customers" style="rounded=0;whiteSpace=wrap;html=1;" vertex="1" parent="1">
          <mxGeometry x="200" y="-110" width="120" height="30" as="geometry" />
        </mxCell>
        <mxCell id="sAUAd_UJqoq-bYFgKddF-12" value="Satisfaction" style="rounded=0;whiteSpace=wrap;html=1;" vertex="1" parent="1">
          <mxGeometry x="230" y="-40" width="90" height="20" as="geometry" />
        </mxCell>
        <mxCell id="sAUAd_UJqoq-bYFgKddF-15" value="E-commerce platform" style="rounded=0;whiteSpace=wrap;html=1;" vertex="1" parent="1">
          <mxGeometry x="480" y="-110" width="120" height="30" as="geometry" />
        </mxCell>
        <mxCell id="sAUAd_UJqoq-bYFgKddF-16" value="Usage" style="rounded=0;whiteSpace=wrap;html=1;" vertex="1" parent="1">
          <mxGeometry x="230" y="-71" width="90" height="20" as="geometry" />
        </mxCell>
        <mxCell id="sAUAd_UJqoq-bYFgKddF-18" value="Search methods" style="rounded=0;whiteSpace=wrap;html=1;" vertex="1" parent="1">
          <mxGeometry x="510" y="-71" width="90" height="20" as="geometry" />
        </mxCell>
        <mxCell id="sAUAd_UJqoq-bYFgKddF-19" value="Conversion rate" style="rounded=0;whiteSpace=wrap;html=1;" vertex="1" parent="1">
          <mxGeometry x="510" y="-40" width="90" height="20" as="geometry" />
        </mxCell>
      </root>
    </mxGraphModel>
  </diagram>
</mxfile>
